<?xml version="1.0" standalone="no"?>
<!DOCTYPE svg PUBLIC "-//W3C//DTD SVG 20010904//EN"
 "http://www.w3.org/TR/2001/REC-SVG-20010904/DTD/svg10.dtd">
<svg version="1.0" xmlns="http://www.w3.org/2000/svg"
 width="947.000000pt" height="947.000000pt" viewBox="0 0 947.000000 947.000000"
 preserveAspectRatio="xMidYMid meet">

<g transform="translate(0.000000,947.000000) scale(0.100000,-0.100000)"
fill="#000000" stroke="none">
<path d="M0 4735 l0 -4735 765 0 c722 0 765 1 765 18 0 9 -7 86 -16 170 -10
83 -14 155 -10 159 3 4 13 -2 20 -13 15 -19 23 -51 51 -184 9 -41 20 -92 26
-112 l10 -38 3929 0 3930 0 0 975 c0 738 -3 974 -12 973 -19 -5 -38 44 -38 97
0 115 -61 355 -90 355 -6 0 -15 11 -21 23 -9 20 -19 24 -59 26 -48 1 -48 1
-70 -44 -12 -25 -27 -45 -33 -45 -7 0 -21 -3 -32 -6 -16 -4 -25 3 -42 33 -12
21 -36 49 -54 62 -27 20 -35 22 -51 12 -16 -10 -23 -9 -36 6 -10 10 -27 23
-39 30 -26 15 -43 -2 -68 -64 -20 -50 -46 -53 -87 -11 -28 30 -44 35 -51 16
-3 -7 -6 -4 -6 8 -1 11 6 29 14 40 8 10 15 29 15 40 0 12 7 27 15 34 8 7 15
19 15 27 0 30 197 223 228 223 5 0 17 8 26 19 16 17 17 58 11 562 -4 309 -3
591 3 652 10 126 7 157 -18 157 -25 0 -158 -55 -179 -74 -10 -9 -26 -16 -37
-16 -11 0 -58 -16 -104 -36 -47 -20 -105 -43 -130 -51 -25 -9 -49 -19 -55 -23
-5 -4 -50 -24 -100 -45 -49 -21 -124 -52 -165 -70 -41 -18 -90 -36 -108 -40
-19 -4 -62 -26 -96 -49 -34 -24 -85 -49 -114 -56 -29 -6 -54 -16 -57 -21 -3
-4 -36 -17 -73 -28 -58 -18 -71 -26 -93 -60 -25 -39 -26 -45 -32 -273 -9 -320
-7 -2650 2 -2716 16 -115 63 -103 476 118 61 33 207 107 325 166 465 230 561
280 572 298 4 6 8 33 8 59 0 26 7 64 15 84 8 19 15 46 15 59 0 39 80 63 94 28
14 -35 -4 -282 -23 -312 -6 -10 -265 -142 -435 -222 -251 -117 -294 -138 -781
-382 -38 -20 -106 -52 -150 -72 -44 -20 -101 -48 -128 -62 -26 -13 -57 -24
-68 -24 -28 0 -182 61 -284 112 -86 43 -166 105 -285 218 -41 40 -94 85 -117
101 -24 17 -50 43 -58 59 -19 36 -19 94 -1 109 11 9 19 4 42 -26 62 -82 262
-272 334 -318 101 -65 257 -137 289 -133 20 2 30 13 43 48 16 38 17 65 13 185
-3 77 -10 298 -15 490 -6 193 -15 496 -20 675 -22 727 -27 1035 -23 1362 6
374 2 414 -45 455 -104 88 -156 134 -219 194 -39 37 -91 77 -116 89 -25 12
-72 46 -105 76 -79 71 -89 70 -96 -8 -9 -107 -17 -481 -21 -988 -6 -703 -17
-1107 -41 -1455 -8 -115 -17 -252 -21 -303 -6 -94 -19 -115 -35 -57 -27 102
-67 475 -73 685 -5 197 -9 247 -18 257 -4 3 -7 -9 -7 -28 0 -19 -9 -52 -19
-75 -10 -22 -22 -79 -26 -127 -4 -48 -11 -87 -16 -87 -5 0 -11 -11 -15 -25 -4
-16 -13 -25 -25 -25 -25 0 -69 -29 -69 -44 0 -7 -20 -33 -44 -58 -38 -40 -51
-47 -97 -53 -30 -4 -69 -15 -87 -26 -18 -10 -40 -19 -49 -19 -9 0 -14 -3 -10
-6 11 -12 -21 -34 -50 -34 -20 0 -36 10 -56 35 -34 42 -51 44 -74 8 -9 -16
-25 -37 -35 -48 -47 -50 -68 -77 -68 -83 0 -11 -52 -31 -100 -37 -25 -4 -56
-12 -70 -18 -35 -17 -77 -59 -82 -83 -2 -10 -10 -19 -18 -19 -8 0 -16 -10 -18
-23 -2 -12 -9 -22 -16 -22 -11 0 -22 -20 -61 -113 -9 -21 -22 -40 -30 -44 -8
-3 -15 -12 -15 -19 0 -8 -11 -19 -23 -23 -13 -5 -31 -25 -40 -44 -9 -19 -28
-42 -42 -51 -14 -10 -31 -29 -37 -44 -29 -71 -40 -92 -48 -92 -5 0 -12 -9 -15
-20 -3 -11 -14 -20 -22 -20 -9 0 -13 -3 -10 -6 11 -11 -13 -44 -32 -44 -10 0
-30 -9 -44 -20 -30 -24 -41 -25 -57 -5 -7 8 -23 15 -37 15 -14 0 -21 4 -18 10
9 15 -24 25 -38 11 -17 -17 -24 -14 -31 14 -4 14 -13 25 -21 25 -8 0 -22 14
-31 32 -9 18 -23 38 -30 46 -22 21 -36 51 -29 62 3 5 -7 27 -23 47 -16 21 -43
79 -58 128 -26 82 -29 102 -28 225 2 141 10 182 68 349 27 79 56 123 124 189
51 50 83 68 137 78 22 4 81 26 131 50 50 24 97 44 106 44 8 0 37 12 64 26 27
14 90 41 139 59 164 60 219 86 247 118 15 18 28 37 28 44 0 6 11 25 25 41 14
17 25 35 25 41 0 7 15 36 34 65 18 29 37 63 41 77 6 20 62 130 148 294 9 17
26 50 37 75 12 25 30 54 40 65 9 11 54 75 98 141 45 67 88 124 97 128 8 3 15
12 15 21 0 9 7 27 16 40 18 28 19 25 -24 275 -42 247 -61 344 -82 430 -11 41
-22 95 -25 120 -7 51 -48 194 -72 255 -9 22 -20 63 -24 90 -15 106 -28 165
-43 194 -9 16 -16 43 -16 60 0 16 -16 91 -35 165 -26 101 -34 153 -33 209 1
84 -4 97 -36 97 -18 0 -23 5 -21 23 1 12 3 28 4 35 0 6 8 12 16 12 20 0 19 9
-5 45 -12 18 -20 47 -20 73 0 48 -45 152 -66 152 -14 0 -23 -23 -29 -71 -6
-42 -12 -49 -45 -49 -29 0 -79 -48 -62 -59 14 -10 22 -40 12 -46 -6 -4 -10 2
-10 12 0 16 -7 18 -60 15 -51 -3 -60 -7 -60 -23 0 -29 -15 -23 -46 19 -58 78
-196 227 -226 243 -38 21 -25 -13 27 -67 76 -78 246 -336 307 -464 27 -58 58
-114 68 -125 18 -21 80 -155 80 -174 0 -7 11 -39 25 -71 22 -51 58 -183 95
-345 22 -92 39 -239 45 -365 3 -74 8 -160 12 -190 12 -106 -8 -239 -52 -355
-14 -38 -37 -99 -49 -135 -93 -265 -146 -390 -195 -460 -24 -36 -61 -88 -81
-117 -62 -89 -166 -206 -236 -263 -17 -14 -48 -39 -70 -57 -124 -102 -396
-248 -519 -278 -38 -9 -86 -25 -105 -35 -19 -9 -55 -22 -80 -28 -171 -41 -914
-50 -955 -11 -5 5 -27 9 -48 9 -22 0 -54 8 -71 19 -17 10 -85 29 -151 41 -109
21 -132 30 -250 93 -147 78 -199 115 -338 239 -150 133 -234 250 -336 463 -35
72 -67 137 -72 145 -26 41 -78 162 -93 217 -9 34 -23 75 -31 90 -8 15 -15 40
-15 54 0 14 -6 48 -14 75 -8 27 -17 87 -20 134 -3 47 -13 116 -21 153 -17 82
-20 271 -5 387 25 197 29 228 39 285 19 107 43 210 54 230 5 11 20 56 32 101
13 44 27 89 33 100 14 27 35 124 28 131 -10 11 -34 -17 -40 -48 -3 -17 -17
-44 -31 -61 -14 -16 -25 -37 -25 -45 0 -9 -11 -35 -25 -59 -14 -23 -32 -71
-41 -106 -9 -35 -22 -72 -29 -83 -17 -28 -41 -126 -50 -205 -4 -36 -13 -89
-21 -119 -9 -37 -12 -81 -8 -135 4 -62 2 -92 -11 -126 -9 -25 -19 -73 -22
-107 l-6 -63 -43 0 c-37 0 -44 3 -44 20 0 11 7 20 15 20 8 0 15 4 15 9 0 5 -7
14 -15 21 -10 9 -15 9 -15 1 0 -13 -19 -14 -38 -2 -12 7 -11 14 2 39 22 44 20
52 -14 52 -28 0 -30 2 -30 40 0 28 -4 40 -15 40 -14 0 -39 66 -29 81 2 4 -5
13 -16 19 -16 9 -22 8 -26 -5 -10 -25 -44 -19 -44 8 0 13 -6 32 -14 43 -10 12
-13 33 -9 59 6 44 6 43 -64 46 -15 1 -23 7 -23 19 0 13 -5 17 -20 13 -15 -4
-20 0 -20 16 0 11 5 21 11 21 5 0 7 5 4 10 -8 13 -55 13 -55 0 0 -5 -9 -10
-20 -10 -11 0 -20 5 -20 10 0 6 -9 10 -20 10 -11 0 -20 5 -20 12 0 6 -7 20
-17 30 -15 17 -15 18 0 18 10 0 17 3 17 6 0 12 -46 43 -64 44 -13 0 -17 5 -13
20 6 24 -11 26 -28 3 -13 -17 -40 -9 -29 9 4 6 -1 8 -12 5 -45 -13 -100 -16
-114 -7 -10 6 -11 10 -2 10 6 0 12 5 12 10 0 6 -13 10 -30 10 -30 0 -40 -13
-17 -24 6 -4 2 -4 -11 -2 -12 2 -36 -1 -52 -7 -26 -10 -32 -9 -44 8 -12 17
-17 18 -41 7 -14 -7 -31 -9 -37 -6 -7 4 -8 2 -4 -4 11 -19 -35 -14 -56 5 -15
13 -18 14 -18 1 0 -8 -11 -25 -24 -37 -14 -13 -22 -29 -19 -37 3 -8 -1 -14
-10 -14 -9 0 -18 -13 -22 -30 -4 -17 -18 -44 -31 -60 -20 -23 -23 -33 -15 -49
14 -26 14 -32 -1 -28 -8 1 -12 -8 -10 -25 3 -22 -2 -28 -32 -39 -20 -7 -36
-19 -36 -25 0 -9 -11 -11 -34 -7 -19 3 -58 -2 -88 -10 -29 -9 -74 -21 -101
-28 -52 -13 -51 -12 -61 -53 -6 -25 -5 -28 11 -21 10 5 45 9 78 11 33 1 80 7
105 14 63 18 98 14 133 -16 17 -15 54 -37 82 -49 27 -13 72 -40 100 -59 27
-20 57 -36 66 -36 18 0 123 -109 144 -150 8 -16 15 -41 15 -55 0 -15 15 -52
34 -83 19 -32 38 -75 42 -97 4 -22 10 -42 13 -45 4 -3 15 -24 25 -47 10 -23
25 -44 32 -47 8 -3 14 -17 14 -31 0 -23 -4 -26 -27 -23 -21 2 -29 9 -31 28 -6
60 -22 97 -48 109 -33 15 -39 9 -36 -37 3 -40 -22 -86 -35 -66 -11 16 -70 5
-78 -15 -4 -11 5 -25 29 -46 42 -35 46 -66 11 -92 -23 -17 -25 -26 -31 -123
-3 -58 -13 -125 -21 -150 -8 -25 -18 -87 -21 -137 -2 -51 -9 -93 -13 -93 -14
0 -11 -28 3 -32 9 -3 4 -18 -15 -46 -15 -23 -30 -62 -34 -87 -3 -25 -12 -50
-19 -56 -24 -20 -15 -29 24 -23 24 4 47 0 67 -10 17 -9 38 -16 48 -16 21 0 23
-26 1 -34 -8 -3 -29 1 -46 10 -35 18 -71 12 -96 -16 -9 -11 -21 -20 -27 -20
-5 0 -22 -21 -36 -48 -30 -53 -26 -85 13 -103 13 -5 34 -16 48 -25 14 -8 41
-14 60 -13 56 2 60 0 60 -21 0 -10 -16 -32 -36 -47 -20 -15 -56 -45 -81 -65
-41 -35 -49 -38 -106 -38 -76 0 -287 25 -342 41 -80 22 -122 54 -323 251 -36
34 -118 162 -158 246 -57 117 -89 241 -109 421 -32 296 -7 524 76 691 38 78
142 213 176 230 71 36 144 87 149 103 3 9 -2 39 -11 66 -9 27 -17 89 -19 138
-2 48 -9 165 -16 258 -12 172 -4 401 19 521 5 27 17 94 26 149 64 380 136 586
304 867 122 204 175 275 366 482 152 166 473 429 655 538 94 55 425 214 545
261 218 84 283 108 335 122 80 21 306 51 573 76 191 17 248 19 322 10 50 -6
131 -13 180 -16 116 -8 187 -21 310 -58 268 -81 436 -140 467 -164 7 -5 40
-22 73 -37 33 -15 62 -30 65 -34 10 -14 67 -50 120 -77 66 -33 244 -150 358
-234 45 -33 87 -61 92 -61 6 0 10 -4 10 -9 0 -5 20 -21 44 -35 114 -67 448
-462 511 -606 9 -19 21 -46 27 -60 6 -14 19 -45 27 -70 18 -51 46 -70 103 -70
120 0 353 -132 483 -272 118 -128 220 -325 281 -542 18 -66 44 -305 44 -413 0
-48 5 -95 10 -103 6 -10 4 -20 -5 -30 -7 -8 -21 -46 -30 -85 -26 -102 -69
-188 -118 -232 -24 -21 -65 -64 -92 -95 -38 -45 -51 -55 -62 -47 -7 6 -13 19
-13 28 0 18 -18 41 -33 41 -5 0 -6 -11 -3 -24 3 -14 13 -80 22 -148 8 -68 28
-177 45 -243 16 -66 35 -168 42 -227 8 -59 20 -115 28 -124 20 -24 157 -13
180 15 16 19 25 237 32 759 2 136 12 150 106 163 38 6 103 28 170 59 105 48
387 161 481 193 25 9 97 34 160 57 63 23 132 46 152 52 70 19 73 26 76 248 2
108 0 212 -5 231 -8 31 -19 39 -117 90 -60 31 -115 65 -123 75 -7 10 -13 40
-13 67 0 52 3 55 163 218 16 16 26 33 23 38 -3 5 -31 23 -61 40 -32 18 -61 43
-70 62 -20 39 -32 146 -45 434 -6 126 -13 232 -16 234 -8 8 -78 31 -95 31 -35
0 -51 193 -25 300 18 76 62 180 84 201 41 38 88 52 202 62 159 14 161 14 209
-86 49 -101 62 -167 46 -230 -14 -56 -91 -174 -134 -208 -17 -13 -43 -33 -58
-45 l-26 -21 -1 -280 c-1 -323 -4 -312 93 -339 76 -22 117 -49 130 -85 19 -56
5 -84 -98 -180 -53 -50 -100 -97 -104 -105 -9 -15 8 -54 24 -54 29 0 137 -65
153 -92 24 -40 39 -218 31 -368 -7 -140 -3 -149 57 -131 51 15 151 53 231 88
76 32 131 26 179 -19 64 -61 184 -154 248 -193 140 -84 226 -156 352 -292 25
-27 53 -53 61 -56 8 -3 17 -26 20 -59 10 -77 8 -130 -2 -123 -6 3 -12 -9 -15
-27 -21 -135 -25 -1340 -5 -1365 8 -9 27 -12 58 -9 59 5 87 -6 134 -52 40 -39
61 -77 83 -152 10 -37 13 561 13 3373 l1 3417 -4735 0 -4735 0 0 -4735z m1814
4101 c128 -53 134 -291 9 -325 -89 -25 -152 -8 -200 55 -22 30 -27 46 -27 94
0 49 5 64 35 105 36 50 88 85 127 85 12 0 38 -6 56 -14z m427 -1402 c5 -15 8
-28 7 -29 -4 -4 -140 -65 -144 -65 -2 0 -4 14 -4 30 0 24 7 35 33 49 17 11 37
24 42 30 20 20 55 12 66 -15z m5359 -265 c0 -12 -7 -19 -19 -19 -26 0 -36 17
-21 35 15 18 40 8 40 -16z m-130 -754 c20 -24 3 -57 -28 -53 -30 3 -41 30 -22
53 16 19 34 19 50 0z m-192 -507 c-6 -18 -28 -21 -28 -4 0 9 7 16 16 16 9 0
14 -5 12 -12z m-6158 -1368 c0 -5 -4 -10 -10 -10 -5 0 -10 5 -10 10 0 6 5 10
10 10 6 0 10 -4 10 -10z m380 -39 c0 -10 -24 -21 -46 -21 -8 0 -14 7 -14 15 0
10 10 15 30 15 17 0 30 -4 30 -9z m714 -813 c3 -13 18 -88 34 -168 31 -151
112 -431 155 -535 14 -33 43 -98 66 -144 22 -46 38 -87 35 -92 -8 -13 -28 -1
-46 29 -9 15 -35 56 -58 92 -23 37 -57 117 -80 185 -21 66 -52 158 -69 205
-40 116 -87 414 -68 438 14 18 26 15 31 -10z m-884 -248 c0 -5 -4 -10 -10 -10
-5 0 -10 5 -10 10 0 6 5 10 10 10 6 0 10 -4 10 -10z m78 -76 c28 -20 28 -34
-1 -34 -25 0 -47 17 -47 37 0 18 21 16 48 -3z m52 -2 c0 -13 -12 -22 -22 -16
-10 6 -1 24 13 24 5 0 9 -4 9 -8z m-100 -981 c0 -5 -6 -14 -14 -20 -16 -13
-32 2 -21 19 8 12 35 13 35 1z m-209 -393 c7 -13 16 -41 20 -63 22 -116 32
-140 97 -237 30 -45 62 -157 62 -214 0 -40 -1 -42 -39 -48 -65 -10 -75 0 -102
104 -6 25 -20 62 -30 83 -11 20 -24 60 -29 87 -5 28 -18 69 -29 92 -21 49 -44
178 -35 202 10 26 71 21 85 -6z m1982 -745 c4 -3 2 -12 -4 -20 -12 -14 -99
-18 -99 -5 0 21 87 42 103 25z m2122 -493 c-3 -5 -14 -10 -23 -9 -14 0 -13 2
3 9 27 11 27 11 20 0z"/>
<path d="M3960 6065 c-139 -20 -237 -44 -370 -92 -207 -74 -495 -236 -460
-258 6 -4 24 4 42 16 73 52 200 113 276 133 32 8 85 26 116 40 111 49 373 101
561 112 101 5 173 22 153 36 -7 4 -52 8 -100 8 -48 0 -90 5 -93 10 -7 12 -14
12 -125 -5z"/>
<path d="M4094 5685 c-183 -19 -419 -90 -584 -178 -301 -160 -517 -338 -642
-526 -118 -178 -229 -475 -267 -716 -25 -156 -14 -598 18 -721 5 -22 15 -65
21 -97 11 -53 37 -120 90 -232 11 -22 26 -56 35 -75 8 -19 28 -55 45 -80 16
-25 39 -61 50 -80 12 -19 32 -52 44 -74 48 -78 202 -238 291 -301 97 -68 275
-176 345 -208 136 -62 197 -77 360 -88 319 -23 626 3 818 67 157 52 288 123
406 219 33 28 76 61 93 73 18 13 32 27 30 32 -1 5 30 39 69 77 62 58 117 133
99 133 -3 0 4 11 17 25 38 40 47 53 60 80 6 14 15 25 20 25 4 0 8 6 8 14 0 7
9 16 21 19 12 3 20 13 19 24 -4 35 0 45 15 39 8 -3 15 -1 15 3 0 5 -6 12 -12
14 -10 4 -10 6 0 6 14 1 17 71 2 71 -5 0 -10 -5 -10 -10 0 -17 -54 -67 -68
-63 -7 3 -10 -1 -6 -11 7 -19 -12 -22 -19 -3 -4 9 -8 8 -17 -3 -8 -12 -10 -10
-5 10 3 14 7 64 9 111 2 47 9 95 15 107 6 12 12 39 13 59 0 21 7 48 14 60 8
13 14 49 14 87 0 53 6 75 31 124 49 92 60 104 105 105 21 1 49 -2 61 -6 20 -7
22 -4 29 40 3 26 13 60 20 75 13 25 16 128 4 128 -3 0 -5 17 -6 38 -1 78 -15
238 -25 282 -32 146 -138 420 -200 520 -100 162 -261 383 -323 445 -71 71
-225 190 -301 234 -78 45 -281 114 -385 130 -85 14 -272 12 -436 -4z m776
-254 c93 -38 160 -83 237 -158 113 -112 242 -326 243 -403 0 -77 -8 -178 -14
-189 -4 -6 -16 -11 -27 -11 -22 0 -68 -26 -85 -49 -17 -21 -153 -40 -219 -29
-65 10 -159 43 -179 64 -8 8 -19 14 -24 14 -13 0 -162 145 -162 157 0 6 -6 16
-14 22 -46 38 -108 230 -105 325 2 46 5 53 32 67 17 8 34 26 38 40 9 35 51
122 66 137 7 7 13 17 13 22 0 12 26 17 81 19 31 1 72 -9 119 -28z m-1603 -592
c67 -32 89 -89 57 -150 -8 -17 -16 -45 -17 -62 -2 -18 -14 -44 -28 -59 -47
-50 -160 -33 -187 27 -32 71 -4 181 61 238 38 33 57 34 114 6z"/>
<path d="M8340 4845 c-111 -33 -247 -89 -269 -111 -24 -22 -25 -29 -31 -206
-3 -118 -10 -191 -18 -205 -25 -44 -93 -44 -126 0 -19 26 -21 42 -21 185 l0
157 -30 -1 c-28 -2 -69 -16 -320 -109 -55 -20 -118 -43 -140 -50 -41 -14 -135
-53 -238 -98 -31 -14 -60 -34 -64 -43 -8 -21 26 -87 70 -135 17 -19 57 -64 87
-100 98 -114 222 -226 275 -250 67 -30 146 -31 205 -2 25 12 68 28 95 37 142
43 420 151 625 241 154 68 289 124 323 135 22 7 77 30 123 51 97 45 111 67 75
118 -30 41 -161 144 -268 211 -48 30 -121 81 -162 113 -40 33 -87 63 -105 68
-36 10 -29 11 -86 -6z"/>
<path d="M1200 4614 c0 -8 5 -12 10 -9 6 3 10 10 10 16 0 5 -4 9 -10 9 -5 0
-10 -7 -10 -16z"/>
<path d="M1768 4433 c7 -3 16 -2 19 1 4 3 -2 6 -13 5 -11 0 -14 -3 -6 -6z"/>
<path d="M870 4320 c0 -5 7 -10 15 -10 8 0 15 5 15 10 0 6 -7 10 -15 10 -8 0
-15 -4 -15 -10z"/>
<path d="M6616 3502 c-3 -6 -1 -14 5 -17 15 -10 25 3 12 16 -7 7 -13 7 -17 1z"/>
<path d="M5626 3233 c-6 -14 -5 -15 5 -6 7 7 10 15 7 18 -3 3 -9 -2 -12 -12z"/>
<path d="M5605 3189 c-4 -6 -5 -12 -2 -15 2 -3 7 2 10 11 7 17 1 20 -8 4z"/>
</g>
</svg>
