<?xml version="1.0" encoding="UTF-8"?>
<!DOCTYPE svg PUBLIC "-//W3C//DTD SVG 1.1//EN" "http://www.w3.org/Graphics/SVG/1.1/DTD/svg11.dtd">
<svg xmlns="http://www.w3.org/2000/svg" version="1.1" width="54px" height="54px" style="shape-rendering:geometricPrecision; text-rendering:geometricPrecision; image-rendering:optimizeQuality; fill-rule:evenodd; clip-rule:evenodd" xmlns:xlink="http://www.w3.org/1999/xlink">
<g><path style="opacity:1" fill="#050426" d="M -0.5,-0.5 C 3.83333,-0.5 8.16667,-0.5 12.5,-0.5C 13.957,2.25481 14.957,5.25481 15.5,8.5C 16.1924,7.97473 16.6924,7.30806 17,6.5C 21.2835,8.16288 25.6168,8.49621 30,7.5C 30.7172,8.0442 31.2172,8.71087 31.5,9.5C 31.2671,11.0618 30.6005,12.3951 29.5,13.5C 27.8333,12.8333 26.1667,12.1667 24.5,11.5C 20.9359,10.5773 17.2693,10.244 13.5,10.5C 12.1314,8.30853 11.1314,5.9752 10.5,3.5C 10.44,2.95691 10.1067,2.62358 9.5,2.5C 8.61432,3.32496 8.28099,4.32496 8.5,5.5C 10.1675,7.47865 10.8342,9.81198 10.5,12.5C 9.83333,12.5 9.5,12.8333 9.5,13.5C 6.5,14.5 4.5,16.5 3.5,19.5C 1.78303,22.8448 1.11636,26.5115 1.5,30.5C 0.833333,31.1667 0.166667,31.8333 -0.5,32.5C -0.5,21.5 -0.5,10.5 -0.5,-0.5 Z"/></g>
<g><path style="opacity:1" fill="#010023" d="M 12.5,-0.5 C 26.1667,-0.5 39.8333,-0.5 53.5,-0.5C 53.5,3.5 53.5,7.5 53.5,11.5C 51.396,11.7989 49.396,11.4656 47.5,10.5C 48.9632,8.27068 49.7965,5.93735 50,3.5C 48.3187,7.4992 45.3187,9.4992 41,9.5C 40.6886,8.25753 41.1886,7.25753 42.5,6.5C 40.8333,5.16667 39.1667,5.16667 37.5,6.5C 38.3256,7.45104 38.4922,8.45104 38,9.5C 35.8368,8.23204 33.6702,8.23204 31.5,9.5C 31.2172,8.71087 30.7172,8.0442 30,7.5C 25.6168,8.49621 21.2835,8.16288 17,6.5C 16.6924,7.30806 16.1924,7.97473 15.5,8.5C 14.957,5.25481 13.957,2.25481 12.5,-0.5 Z"/></g>
<g><path style="opacity:1" fill="#e37b55" d="M 10.5,3.5 C 10.5,4.83333 9.83333,5.5 8.5,5.5C 8.28099,4.32496 8.61432,3.32496 9.5,2.5C 10.1067,2.62358 10.44,2.95691 10.5,3.5 Z"/></g>
<g><path style="opacity:1" fill="#120c33" d="M 53.5,11.5 C 53.5,20.1667 53.5,28.8333 53.5,37.5C 52.8826,37.3893 52.3826,37.056 52,36.5C 51.8236,33.1182 51.3236,29.7848 50.5,26.5C 49.1804,24.7299 47.6804,24.3966 46,25.5C 45.7679,24.2625 45.2679,23.2625 44.5,22.5C 44.67,23.8221 44.3366,24.9887 43.5,26C 41.3594,26.5725 39.3594,27.4058 37.5,28.5C 37.6633,26.1432 37.4966,23.8098 37,21.5C 36.2917,20.6195 35.4584,19.9528 34.5,19.5C 34.4142,18.5041 34.7476,17.6708 35.5,17C 34.2068,16.51 32.8734,16.3433 31.5,16.5C 31.1667,15.5 30.5,14.8333 29.5,14.5C 29.5,14.1667 29.5,13.8333 29.5,13.5C 30.6005,12.3951 31.2671,11.0618 31.5,9.5C 33.6702,8.23204 35.8368,8.23204 38,9.5C 38.4922,8.45104 38.3256,7.45104 37.5,6.5C 39.1667,5.16667 40.8333,5.16667 42.5,6.5C 41.1886,7.25753 40.6886,8.25753 41,9.5C 45.3187,9.4992 48.3187,7.4992 50,3.5C 49.7965,5.93735 48.9632,8.27068 47.5,10.5C 49.396,11.4656 51.396,11.7989 53.5,11.5 Z"/></g>
<g><path style="opacity:1" fill="#4b3c60" d="M 10.5,3.5 C 11.1314,5.9752 12.1314,8.30853 13.5,10.5C 12.7095,11.4013 11.7095,12.0679 10.5,12.5C 10.8342,9.81198 10.1675,7.47865 8.5,5.5C 9.83333,5.5 10.5,4.83333 10.5,3.5 Z"/></g>
<g><path style="opacity:1" fill="#b6a9bf" d="M 24.5,11.5 C 26.1667,12.1667 27.8333,12.8333 29.5,13.5C 29.5,13.8333 29.5,14.1667 29.5,14.5C 27.7868,15.6354 27.1201,17.302 27.5,19.5C 21.9899,18.9266 17.3233,20.5932 13.5,24.5C 10.4816,24.3354 7.48162,24.502 4.5,25C 3.24751,26.8278 3.24751,28.6612 4.5,30.5C 3.5,30.5 2.5,30.5 1.5,30.5C 1.11636,26.5115 1.78303,22.8448 3.5,19.5C 5.4385,21.1628 7.77183,21.8294 10.5,21.5C 16.6423,21.9519 20.309,19.2852 21.5,13.5C 22.7387,13.0576 23.7387,12.3909 24.5,11.5 Z"/></g>
<g><path style="opacity:1" fill="#882d43" d="M 44.5,15.5 C 44.6309,14.6236 44.2975,13.9569 43.5,13.5C 42.5481,15.0453 42.2148,16.712 42.5,18.5C 41.5714,19.9361 40.4048,21.2695 39,22.5C 39.2218,20.5436 40.0552,18.7103 41.5,17C 40.5,16.6667 39.5,16.3333 38.5,16C 40.417,13.9027 42.417,12.0694 44.5,10.5C 46.3904,11.6123 48.3904,12.4456 50.5,13C 48.5115,13.9383 46.5115,14.7717 44.5,15.5 Z"/></g>
<g><path style="opacity:1" fill="#d4cbd7" d="M 13.5,10.5 C 17.2693,10.244 20.9359,10.5773 24.5,11.5C 23.7387,12.3909 22.7387,13.0576 21.5,13.5C 20.309,19.2852 16.6423,21.9519 10.5,21.5C 12.1774,18.3846 11.8441,15.7179 9.5,13.5C 9.5,12.8333 9.83333,12.5 10.5,12.5C 11.7095,12.0679 12.7095,11.4013 13.5,10.5 Z"/></g>
<g><path style="opacity:1" fill="#7f1e3c" d="M 31.5,16.5 C 32.8734,16.3433 34.2068,16.51 35.5,17C 34.7476,17.6708 34.4142,18.5041 34.5,19.5C 34.1667,19.5 33.8333,19.5 33.5,19.5C 33.5,18.8333 33.1667,18.5 32.5,18.5C 32.1667,17.8333 31.8333,17.1667 31.5,16.5 Z"/></g>
<g><path style="opacity:1" fill="#c6b9c1" d="M 44.5,15.5 C 45.0818,17.998 45.0818,20.3313 44.5,22.5C 43.6554,21.3285 42.9887,19.9952 42.5,18.5C 42.2148,16.712 42.5481,15.0453 43.5,13.5C 44.2975,13.9569 44.6309,14.6236 44.5,15.5 Z"/></g>
<g><path style="opacity:1" fill="#eee6db" d="M 9.5,13.5 C 11.8441,15.7179 12.1774,18.3846 10.5,21.5C 7.77183,21.8294 5.4385,21.1628 3.5,19.5C 4.5,16.5 6.5,14.5 9.5,13.5 Z"/></g>
<g><path style="opacity:1" fill="#e2d5d9" d="M 29.5,14.5 C 30.5,14.8333 31.1667,15.5 31.5,16.5C 31.8333,17.1667 32.1667,17.8333 32.5,18.5C 31.0783,18.7086 29.745,19.2086 28.5,20C 30.0703,21.3968 31.4036,22.8968 32.5,24.5C 33.2341,25.7079 33.5674,27.0413 33.5,28.5C 33.5,29.1667 33.1667,29.5 32.5,29.5C 32.3404,27.847 31.6737,26.5137 30.5,25.5C 29.4721,25.0742 28.1388,25.0742 26.5,25.5C 26.5,24.5 26.5,23.5 26.5,22.5C 24.9712,21.3643 22.6379,21.1977 19.5,22C 17.9069,22.9487 16.5736,24.1154 15.5,25.5C 13.3666,31.4838 14.6999,36.4838 19.5,40.5C 18.8333,40.5 18.1667,40.5 17.5,40.5C 16.1667,39.8333 15.1667,38.8333 14.5,37.5C 12.2739,33.346 11.9405,29.0127 13.5,24.5C 17.3233,20.5932 21.9899,18.9266 27.5,19.5C 27.1201,17.302 27.7868,15.6354 29.5,14.5 Z"/></g>
<g><path style="opacity:1" fill="#f0ecf2" d="M 33.5,19.5 C 33.8333,19.5 34.1667,19.5 34.5,19.5C 35.4584,19.9528 36.2917,20.6195 37,21.5C 37.4966,23.8098 37.6633,26.1432 37.5,28.5C 36.8826,28.6107 36.3826,28.944 36,29.5C 35.6847,27.4144 35.1847,25.4144 34.5,23.5C 33.7659,22.2921 33.4326,20.9587 33.5,19.5 Z"/></g>
<g><path style="opacity:1" fill="#bb90ad" d="M 32.5,18.5 C 33.1667,18.5 33.5,18.8333 33.5,19.5C 33.4326,20.9587 33.7659,22.2921 34.5,23.5C 33.5084,23.3284 32.8417,23.6618 32.5,24.5C 31.4036,22.8968 30.0703,21.3968 28.5,20C 29.745,19.2086 31.0783,18.7086 32.5,18.5 Z"/></g>
<g><path style="opacity:1" fill="#8677a5" d="M 13.5,24.5 C 11.9405,29.0127 12.2739,33.346 14.5,37.5C 13.8826,37.6107 13.3826,37.944 13,38.5C 11.907,36.6508 10.5737,34.9842 9,33.5C 7.98308,37.7774 7.14975,41.7774 6.5,45.5C 5.76589,44.2921 5.43255,42.9587 5.5,41.5C 4.20895,41.7373 3.20895,41.404 2.5,40.5C 3.64911,40.2089 4.31577,39.3756 4.5,38C 5.56642,35.3294 5.56642,32.8294 4.5,30.5C 3.24751,28.6612 3.24751,26.8278 4.5,25C 7.48162,24.502 10.4816,24.3354 13.5,24.5 Z"/></g>
<g><path style="opacity:1" fill="#bf6579" d="M 26.5,22.5 C 26.5,23.5 26.5,24.5 26.5,25.5C 28.1388,25.0742 29.4721,25.0742 30.5,25.5C 30.5,26.5 30.5,27.5 30.5,28.5C 25.7476,28.6586 24.4143,26.6586 26.5,22.5 Z"/></g>
<g><path style="opacity:1" fill="#aeb1c6" d="M 44.5,22.5 C 45.2679,23.2625 45.7679,24.2625 46,25.5C 47.6804,24.3966 49.1804,24.7299 50.5,26.5C 51.3236,29.7848 51.8236,33.1182 52,36.5C 52.3826,37.056 52.8826,37.3893 53.5,37.5C 53.5,38.1667 53.5,38.8333 53.5,39.5C 52.2905,39.0679 51.2905,38.4013 50.5,37.5C 50.8064,34.6146 50.4731,31.9479 49.5,29.5C 50.3855,27.7298 49.5521,26.7298 47,26.5C 46.0546,26.9054 45.3879,27.572 45,28.5C 42.499,26.9442 40.999,27.6108 40.5,30.5C 38.9519,30.8212 38.2852,31.8212 38.5,33.5C 38.1667,33.5 37.8333,33.5 37.5,33.5C 37.5,31.8333 37.5,30.1667 37.5,28.5C 39.3594,27.4058 41.3594,26.5725 43.5,26C 44.3366,24.9887 44.67,23.8221 44.5,22.5 Z"/></g>
<g><path style="opacity:1" fill="#141849" d="M 49.5,29.5 C 47.323,29.5861 45.323,30.2528 43.5,31.5C 42.5832,30.8728 41.5832,30.5394 40.5,30.5C 40.999,27.6108 42.499,26.9442 45,28.5C 45.3879,27.572 46.0546,26.9054 47,26.5C 49.5521,26.7298 50.3855,27.7298 49.5,29.5 Z"/></g>
<g><path style="opacity:1" fill="#5b4d61" d="M 26.5,22.5 C 24.4143,26.6586 25.7476,28.6586 30.5,28.5C 30.5,27.5 30.5,26.5 30.5,25.5C 31.6737,26.5137 32.3404,27.847 32.5,29.5C 32.6038,33.8303 30.9372,37.1636 27.5,39.5C 27.5,38.5 27.5,37.5 27.5,36.5C 25.3453,36.628 23.3453,36.128 21.5,35C 18.7731,32.1448 16.7731,28.9781 15.5,25.5C 16.5736,24.1154 17.9069,22.9487 19.5,22C 22.6379,21.1977 24.9712,21.3643 26.5,22.5 Z"/></g>
<g><path style="opacity:1" fill="#b4b7cc" d="M 49.5,29.5 C 47.5,30.8333 45.5,32.1667 43.5,33.5C 42.8333,33.1667 42.1667,32.8333 41.5,32.5C 41.1667,31.8333 40.8333,31.1667 40.5,30.5C 41.5832,30.5394 42.5832,30.8728 43.5,31.5C 45.323,30.2528 47.323,29.5861 49.5,29.5 Z"/></g>
<g><path style="opacity:1" fill="#e9e6e6" d="M 1.5,30.5 C 2.5,30.5 3.5,30.5 4.5,30.5C 5.56642,32.8294 5.56642,35.3294 4.5,38C 4.31577,39.3756 3.64911,40.2089 2.5,40.5C 1.27187,39.6935 0.271873,38.6935 -0.5,37.5C -0.5,35.8333 -0.5,34.1667 -0.5,32.5C 0.166667,31.8333 0.833333,31.1667 1.5,30.5 Z"/></g>
<g><path style="opacity:1" fill="#000444" d="M 49.5,29.5 C 50.4731,31.9479 50.8064,34.6146 50.5,37.5C 47.9131,40.0103 47.9131,42.677 50.5,45.5C 48.8816,47.316 46.8816,48.6493 44.5,49.5C 43.5052,44.2079 43.1718,38.8746 43.5,33.5C 45.5,32.1667 47.5,30.8333 49.5,29.5 Z"/></g>
<g><path style="opacity:1" fill="#ebe3eb" d="M 37.5,33.5 C 37.8333,33.5 38.1667,33.5 38.5,33.5C 38.5,35.5 38.5,37.5 38.5,39.5C 35.5138,40.8079 32.5138,42.1412 29.5,43.5C 28.2624,47.3107 27.5958,47.3107 27.5,43.5C 27.5,43.1667 27.5,42.8333 27.5,42.5C 29.258,42.1231 30.9246,41.4565 32.5,40.5C 33.9431,37.9235 35.6098,35.5901 37.5,33.5 Z"/></g>
<g><path style="opacity:1" fill="#43374c" d="M 15.5,25.5 C 16.7731,28.9781 18.7731,32.1448 21.5,35C 23.3453,36.128 25.3453,36.628 27.5,36.5C 27.5,37.5 27.5,38.5 27.5,39.5C 24.9039,40.2653 22.2372,40.5987 19.5,40.5C 14.6999,36.4838 13.3666,31.4838 15.5,25.5 Z"/></g>
<g><path style="opacity:1" fill="#b2a7d4" d="M 33.5,28.5 C 34.8186,38.088 30.4853,42.4213 20.5,41.5C 19.8333,41.5 19.1667,41.5 18.5,41.5C 17.8333,41.5 17.5,41.1667 17.5,40.5C 18.1667,40.5 18.8333,40.5 19.5,40.5C 22.2372,40.5987 24.9039,40.2653 27.5,39.5C 30.9372,37.1636 32.6038,33.8303 32.5,29.5C 33.1667,29.5 33.5,29.1667 33.5,28.5 Z"/></g>
<g><path style="opacity:1" fill="#655178" d="M 34.5,23.5 C 35.1847,25.4144 35.6847,27.4144 36,29.5C 36.3826,28.944 36.8826,28.6107 37.5,28.5C 37.5,30.1667 37.5,31.8333 37.5,33.5C 35.6098,35.5901 33.9431,37.9235 32.5,40.5C 30.9246,41.4565 29.258,42.1231 27.5,42.5C 24.9407,42.8016 22.6074,42.4682 20.5,41.5C 30.4853,42.4213 34.8186,38.088 33.5,28.5C 33.5674,27.0413 33.2341,25.7079 32.5,24.5C 32.8417,23.6618 33.5084,23.3284 34.5,23.5 Z"/></g>
<g><path style="opacity:1" fill="#604e81" d="M 14.5,37.5 C 15.1667,38.8333 16.1667,39.8333 17.5,40.5C 17.5,41.1667 17.8333,41.5 18.5,41.5C 19.1667,42.5 19.8333,43.5 20.5,44.5C 16.0914,45.5978 11.7581,46.5978 7.5,47.5C 6.66175,47.1583 6.32842,46.4916 6.5,45.5C 7.14975,41.7774 7.98308,37.7774 9,33.5C 10.5737,34.9842 11.907,36.6508 13,38.5C 13.3826,37.944 13.8826,37.6107 14.5,37.5 Z"/></g>
<g><path style="opacity:1" fill="#a194bb" d="M 38.5,39.5 C 38.5,40.8333 38.5,42.1667 38.5,43.5C 37.0755,41.9689 36.4088,42.3023 36.5,44.5C 33.3567,44.969 31.0233,46.6356 29.5,49.5C 26.6511,48.0804 25.9844,46.0804 27.5,43.5C 27.5958,47.3107 28.2624,47.3107 29.5,43.5C 32.5138,42.1412 35.5138,40.8079 38.5,39.5 Z"/></g>
<g><path style="opacity:1" fill="#161a4f" d="M 40.5,30.5 C 40.8333,31.1667 41.1667,31.8333 41.5,32.5C 42.2419,38.4898 42.4085,44.4898 42,50.5C 39.259,48.9326 38.0923,46.5993 38.5,43.5C 38.5,42.1667 38.5,40.8333 38.5,39.5C 38.5,37.5 38.5,35.5 38.5,33.5C 38.2852,31.8212 38.9519,30.8212 40.5,30.5 Z"/></g>
<g><path style="opacity:1" fill="#0e1148" d="M -0.5,37.5 C 0.271873,38.6935 1.27187,39.6935 2.5,40.5C 3.20895,41.404 4.20895,41.7373 5.5,41.5C 5.43255,42.9587 5.76589,44.2921 6.5,45.5C 6.32842,46.4916 6.66175,47.1583 7.5,47.5C 7.5,49.5 7.5,51.5 7.5,53.5C 6.5,53.5 5.5,53.5 4.5,53.5C 2.5,52.1667 0.833333,50.5 -0.5,48.5C -0.5,44.8333 -0.5,41.1667 -0.5,37.5 Z"/></g>
<g><path style="opacity:1" fill="#9a2239" d="M 7.5,47.5 C 11.7581,46.5978 16.0914,45.5978 20.5,44.5C 22.1368,43.7822 23.8034,43.6155 25.5,44C 19.9009,46.9316 13.9009,48.0983 7.5,47.5 Z"/></g>
<g><path style="opacity:1" fill="#685e93" d="M 36.5,44.5 C 36.9689,47.3933 35.9689,49.3933 33.5,50.5C 31.901,50.7678 30.5676,50.4345 29.5,49.5C 31.0233,46.6356 33.3567,44.969 36.5,44.5 Z"/></g>
<g><path style="opacity:1" fill="#010106" d="M -0.5,48.5 C 0.833333,50.5 2.5,52.1667 4.5,53.5C 2.83333,53.5 1.16667,53.5 -0.5,53.5C -0.5,51.8333 -0.5,50.1667 -0.5,48.5 Z"/></g>
<g><path style="opacity:1" fill="#605f9d" d="M 41.5,32.5 C 42.1667,32.8333 42.8333,33.1667 43.5,33.5C 43.1718,38.8746 43.5052,44.2079 44.5,49.5C 46.8816,48.6493 48.8816,47.316 50.5,45.5C 47.9131,42.677 47.9131,40.0103 50.5,37.5C 51.2905,38.4013 52.2905,39.0679 53.5,39.5C 53.5,40.8333 53.5,42.1667 53.5,43.5C 51.4597,47.5515 48.1264,50.2182 43.5,51.5C 39.1584,51.1107 36.8251,48.7774 36.5,44.5C 36.4088,42.3023 37.0755,41.9689 38.5,43.5C 38.0923,46.5993 39.259,48.9326 42,50.5C 42.4085,44.4898 42.2419,38.4898 41.5,32.5 Z"/></g>
<g><path style="opacity:1" fill="#01034b" d="M 53.5,43.5 C 53.5,45.5 53.5,47.5 53.5,49.5C 51.8089,50.8637 50.1423,52.197 48.5,53.5C 47.1667,53.5 45.8333,53.5 44.5,53.5C 44.1667,52.8333 43.8333,52.1667 43.5,51.5C 48.1264,50.2182 51.4597,47.5515 53.5,43.5 Z"/></g>
<g><path style="opacity:1" fill="#000008" d="M 53.5,49.5 C 53.5,50.8333 53.5,52.1667 53.5,53.5C 51.8333,53.5 50.1667,53.5 48.5,53.5C 50.1423,52.197 51.8089,50.8637 53.5,49.5 Z"/></g>
<g><path style="opacity:1" fill="#3d376d" d="M 18.5,41.5 C 19.1667,41.5 19.8333,41.5 20.5,41.5C 22.6074,42.4682 24.9407,42.8016 27.5,42.5C 27.5,42.8333 27.5,43.1667 27.5,43.5C 25.9844,46.0804 26.6511,48.0804 29.5,49.5C 30.5676,50.4345 31.901,50.7678 33.5,50.5C 32.7375,51.2679 31.7375,51.7679 30.5,52C 31.056,52.3826 31.3893,52.8826 31.5,53.5C 23.5,53.5 15.5,53.5 7.5,53.5C 7.5,51.5 7.5,49.5 7.5,47.5C 13.9009,48.0983 19.9009,46.9316 25.5,44C 23.8034,43.6155 22.1368,43.7822 20.5,44.5C 19.8333,43.5 19.1667,42.5 18.5,41.5 Z"/></g>
<g><path style="opacity:1" fill="#081340" d="M 36.5,44.5 C 36.8251,48.7774 39.1584,51.1107 43.5,51.5C 43.8333,52.1667 44.1667,52.8333 44.5,53.5C 40.1667,53.5 35.8333,53.5 31.5,53.5C 31.3893,52.8826 31.056,52.3826 30.5,52C 31.7375,51.7679 32.7375,51.2679 33.5,50.5C 35.9689,49.3933 36.9689,47.3933 36.5,44.5 Z"/></g>
</svg>
